<?xml version="1.0" ?><svg id="icon" viewBox="0 0 512 512" xmlns="http://www.w3.org/2000/svg"><defs><style>.cls-1{fill:none;}.cls-1,.cls-2,.cls-3,.cls-6{stroke:#526b77;}.cls-1,.cls-3{stroke-miterlimit:10;}.cls-1,.cls-2,.cls-3{stroke-width:10px;}.cls-2,.cls-3{fill:#daa748;}.cls-2,.cls-6{stroke-linejoin:round;}.cls-4{fill:#e2e155;}.cls-5{fill:#526b77;}.cls-6{fill:#f3e2af;stroke-linecap:round;stroke-width:5px;}</style></defs><title/><path class="cls-1" d="M145.06,160.71C69.72,132,38.39,243.37,166.81,265"/><path class="cls-1" d="M366.94,160.71C442.28,132,473.61,243.37,345.19,265"/><path class="cls-2" d="M335,448H177s19.32-49.36,61-53.46V313.67h36v80.87C315.68,398.64,335,448,335,448Z"/><path class="cls-3" d="M256,331c-121.89,0-128-226.2-128-226.2S181.3,96,256,96s128,8.8,128,8.8S377.89,331,256,331Z"/><path class="cls-4" d="M277.35,277.9c-3.86,0-7.81-2.12-11.62-4.18-3.39-1.83-6.9-3.71-9.72-3.71s-6.33,1.89-9.72,3.71c-3.82,2.05-7.77,4.18-11.62,4.18h0a9.47,9.47,0,0,1-2.93-.45c-5-1.61-7.46-6.84-9.88-11.9-1.61-3.37-3.27-6.85-5.39-8.39s-6-2.09-9.76-2.6c-5.51-.74-11.21-1.51-14.24-5.67s-2-9.74-1-15.18c.68-3.74,1.38-7.6.53-10.2-.79-2.42-3.54-5-6.21-7.57-4.1-3.89-8.33-7.91-8.33-13.23s4.24-9.34,8.33-13.23c2.67-2.53,5.43-5.15,6.21-7.57.84-2.6.14-6.46-.53-10.2-1-5.44-2-11.07,1-15.18s8.73-4.93,14.25-5.67c3.74-.5,7.6-1,9.76-2.59s3.78-5,5.39-8.39c2.42-5.06,4.92-10.29,9.88-11.9a9.48,9.48,0,0,1,2.94-.45c3.86,0,7.81,2.12,11.62,4.18,3.39,1.83,6.9,3.71,9.72,3.71s6.33-1.89,9.72-3.71c3.82-2.05,7.77-4.18,11.62-4.18a9.49,9.49,0,0,1,2.94.45c5,1.61,7.46,6.84,9.88,11.9,1.61,3.37,3.27,6.85,5.39,8.39s6,2.09,9.76,2.6c5.51.74,11.21,1.51,14.24,5.67s2,9.74,1,15.18c-.68,3.74-1.38,7.6-.53,10.2.79,2.42,3.54,5,6.21,7.57,4.1,3.89,8.33,7.91,8.33,13.23s-4.24,9.34-8.33,13.23c-2.67,2.53-5.43,5.15-6.21,7.57-.84,2.6-.14,6.46.53,10.2,1,5.44,2,11.07-1,15.18s-8.73,4.93-14.24,5.67c-3.74.5-7.6,1-9.76,2.59s-3.78,5-5.39,8.39c-2.42,5.06-4.92,10.29-9.88,11.9A9.49,9.49,0,0,1,277.35,277.9Z"/><path class="cls-5" d="M234.65,130c6.53,0,14.52,7.89,21.35,7.89S270.82,130,277.35,130a7,7,0,0,1,2.16.33c7.11,2.31,8.66,15.63,14.58,19.93S313.2,152,317.55,158s-2.2,17.58.1,24.69c2.23,6.86,14.42,12.43,14.42,20s-12.2,13.18-14.42,20c-2.31,7.11,4.2,18.77-.1,24.69s-17.48,3.37-23.46,7.71-7.47,17.63-14.57,19.93a7,7,0,0,1-2.16.33c-6.53,0-14.52-7.89-21.35-7.89s-14.82,7.89-21.35,7.89a7,7,0,0,1-2.16-.33c-7.11-2.31-8.66-15.63-14.58-19.93s-19.11-1.74-23.46-7.71,2.2-17.58-.1-24.69c-2.23-6.86-14.42-12.43-14.42-20s12.2-13.18,14.42-20c2.31-7.11-4.2-18.77.1-24.69s17.48-3.37,23.46-7.71,7.47-17.63,14.58-19.93a7,7,0,0,1,2.16-.33m0-5a12,12,0,0,0-3.71.57c-6,1.94-8.84,7.92-11.36,13.2-1.41,2.94-3,6.28-4.61,7.45s-5.36,1.7-8.63,2.14c-5.75.77-12.27,1.65-15.93,6.68S188,166.46,189,172.14c.62,3.43,1.27,7,.62,9-.59,1.82-3.23,4.32-5.56,6.53-4.27,4.06-9.11,8.65-9.11,15s4.84,11,9.11,15c2.33,2.21,5,4.71,5.56,6.53.65,2,0,5.55-.62,9-1,5.68-2.2,12.12,1.43,17.1s10.18,5.9,15.93,6.68c3.27.44,7,.94,8.63,2.14s3.2,4.51,4.61,7.45c2.52,5.27,5.38,11.25,11.36,13.2a12,12,0,0,0,3.71.57c4.49,0,8.72-2.28,12.81-4.48,3.12-1.68,6.35-3.42,8.54-3.42s5.42,1.74,8.54,3.42c4.09,2.2,8.32,4.48,12.81,4.48a12,12,0,0,0,3.71-.57c6-1.94,8.84-7.92,11.36-13.2,1.41-2.94,3-6.28,4.61-7.45s5.36-1.7,8.63-2.14c5.75-.77,12.27-1.65,15.93-6.68s2.46-11.42,1.43-17.1c-.62-3.43-1.27-7-.62-9,.59-1.82,3.23-4.32,5.56-6.53,4.27-4.06,9.11-8.65,9.11-15s-4.84-11-9.11-15c-2.33-2.21-5-4.71-5.56-6.53-.65-2,0-5.55.62-9,1-5.68,2.2-12.12-1.43-17.1s-10.18-5.9-15.93-6.68c-3.27-.44-7-.94-8.63-2.14s-3.2-4.51-4.61-7.45c-2.52-5.27-5.38-11.25-11.36-13.2a12,12,0,0,0-3.71-.57c-4.49,0-8.72,2.28-12.81,4.48-3.12,1.68-6.35,3.42-8.54,3.42s-5.42-1.74-8.54-3.42c-4.09-2.2-8.32-4.48-12.81-4.48Z"/><path class="cls-6" d="M268.44,168.2v69.58H249.69V184H239.38V168.2Z"/></svg>